<?xml version="1.0" standalone="no"?><svg xmlns="http://www.w3.org/2000/svg" viewBox="0 0 1440 320"><path fill="#9ab87a" fill-opacity="1" d="M0,160L26.7,170.7C53.3,181,107,203,160,176C213.3,149,267,75,320,90.7C373.3,107,427,213,480,240C533.3,267,587,213,640,208C693.3,203,747,245,800,224C853.3,203,907,117,960,106.7C1013.3,96,1067,160,1120,176C1173.3,192,1227,160,1280,133.3C1333.3,107,1387,85,1413,74.7L1440,64L1440,320L1413.3,320C1386.7,320,1333,320,1280,320C1226.7,320,1173,320,1120,320C1066.7,320,1013,320,960,320C906.7,320,853,320,800,320C746.7,320,693,320,640,320C586.7,320,533,320,480,320C426.7,320,373,320,320,320C266.7,320,213,320,160,320C106.7,320,53,320,27,320L0,320Z"></path></svg>