<?xml version="1.0" standalone="no"?><svg xmlns="http://www.w3.org/2000/svg" viewBox="0 0 1440 320"><path fill="#9ab87a" fill-opacity="1" d="M0,288L26.7,261.3C53.3,235,107,181,160,165.3C213.3,149,267,171,320,160C373.3,149,427,107,480,101.3C533.3,96,587,128,640,154.7C693.3,181,747,203,800,229.3C853.3,256,907,288,960,256C1013.3,224,1067,128,1120,106.7C1173.3,85,1227,139,1280,144C1333.3,149,1387,107,1413,85.3L1440,64L1440,320L1413.3,320C1386.7,320,1333,320,1280,320C1226.7,320,1173,320,1120,320C1066.7,320,1013,320,960,320C906.7,320,853,320,800,320C746.7,320,693,320,640,320C586.7,320,533,320,480,320C426.7,320,373,320,320,320C266.7,320,213,320,160,320C106.7,320,53,320,27,320L0,320Z"></path></svg>